<?xml version="1.0" standalone="no"?>
<!DOCTYPE svg PUBLIC "-//W3C//DTD SVG 20010904//EN"
 "http://www.w3.org/TR/2001/REC-SVG-20010904/DTD/svg10.dtd">
<svg version="1.0" xmlns="http://www.w3.org/2000/svg"
 width="298.000000pt" height="298.000000pt" viewBox="0 0 298.000000 298.000000"
 preserveAspectRatio="xMidYMid meet">
<metadata>
Created by potrace 1.14, written by Peter Selinger 2001-2017
</metadata>
<g transform="translate(0.000000,298.000000) scale(0.100000,-0.100000)"
fill="#000000" stroke="none">
<path d="M580 2945 c-92 -19 -125 -34 -162 -73 -64 -66 -78 -107 -74 -214 2
-55 9 -108 19 -130 8 -20 13 -39 9 -42 -3 -3 1 -6 8 -6 7 0 11 -3 7 -6 -11
-12 55 -116 115 -179 16 -16 44 -52 64 -78 38 -51 181 -174 280 -242 310 -211
476 -340 568 -444 32 -36 62 -68 65 -71 12 -10 49 -67 69 -105 38 -76 60 -156
62 -225 2 -47 -1 -55 -35 -124 -49 -95 -175 -196 -301 -240 -202 -71 -410 -51
-562 53 -67 45 -91 72 -123 137 -26 55 -27 139 -2 192 72 152 338 219 515 131
79 -40 138 -119 138 -186 0 -54 -16 -86 -69 -138 -22 -22 -41 -43 -41 -48 0
-11 48 2 97 26 91 44 132 113 128 217 -3 84 -32 145 -107 226 -47 50 -74 69
-136 95 -146 62 -364 49 -520 -31 -244 -125 -291 -398 -102 -588 119 -120 367
-194 595 -178 163 11 401 61 540 113 212 79 362 184 447 313 43 64 99 191 102
229 1 14 4 31 8 36 3 6 5 31 4 57 0 25 2 44 7 41 4 -2 7 28 7 69 -2 159 17
274 52 305 14 12 70 25 194 44 97 15 182 30 190 33 32 12 9 24 -88 46 -90 20
-109 29 -157 68 -108 88 -246 133 -342 113 -86 -19 -148 -59 -258 -166 l-105
-103 11 -45 10 -46 -76 78 c-104 107 -270 203 -519 302 -42 17 -79 34 -82 37
-3 4 -47 28 -98 54 -153 79 -287 190 -333 280 -32 59 -33 164 -3 205 65 89
247 89 421 2 76 -38 173 -128 173 -159 0 -6 5 -10 11 -10 5 0 7 -5 3 -12 -4
-6 1 -17 10 -24 10 -7 18 -16 18 -21 0 -8 6 -23 29 -80 6 -16 11 -65 11 -110
0 -104 11 -116 60 -65 41 42 78 138 78 201 0 99 -41 224 -92 282 -29 33 -121
99 -170 122 -143 67 -437 109 -568 82z"/>
<path d="M900 1715 l0 -175 33 -1 c17 -1 43 -2 57 -3 l25 -1 1 148 0 148 -35
21 c-20 12 -37 26 -39 30 -2 4 -12 8 -23 8 -18 0 -19 -9 -19 -175z"/>
<path d="M900 1031 c0 -148 4 -262 9 -266 5 -3 30 -8 54 -11 38 -4 46 -2 50
13 3 10 4 131 3 268 l-1 250 -58 3 -57 4 0 -261z"/>
<path d="M902 468 c1 -90 7 -170 13 -178 5 -8 11 -22 12 -31 5 -34 57 -111
101 -150 26 -23 76 -56 112 -73 62 -29 71 -31 190 -31 105 0 137 4 198 24 155
51 226 131 220 247 -5 75 -31 118 -97 160 -41 26 -56 29 -141 32 -84 2 -100 0
-134 -20 -54 -32 -79 -68 -79 -117 0 -51 25 -89 71 -108 41 -17 107 -12 153
11 43 21 36 0 -14 -49 -101 -97 -264 -85 -392 27 -78 68 -88 100 -93 271 l-4
147 -60 0 -60 0 4 -162z"/>
</g>
</svg>
